<?xml version="1.0" standalone="no"?>
<!DOCTYPE svg PUBLIC "-//W3C//DTD SVG 20010904//EN"
 "http://www.w3.org/TR/2001/REC-SVG-20010904/DTD/svg10.dtd">
<svg version="1.0" xmlns="http://www.w3.org/2000/svg"
 width="1280.000000pt" height="1280.000000pt" viewBox="0 0 1280.000000 1280.000000"
 preserveAspectRatio="xMidYMid meet">
<metadata>
Created by potrace 1.16, written by Peter Selinger 2001-2019
</metadata>
<g transform="translate(0.000000,1280.000000) scale(0.100000,-0.100000)"
fill="#000000" stroke="none">
<path d="M6306 10072 c-3 -5 -94 -12 -203 -15 -109 -4 -218 -11 -243 -18 -25
-6 -81 -17 -125 -24 -152 -26 -199 -36 -210 -44 -5 -5 -30 -12 -55 -16 -54 -8
-134 -31 -175 -50 -16 -8 -45 -17 -63 -20 -18 -4 -45 -13 -60 -21 -15 -8 -35
-14 -44 -14 -9 0 -19 -4 -22 -9 -3 -5 -18 -12 -33 -16 -15 -3 -46 -15 -70 -26
-23 -10 -47 -19 -52 -19 -6 0 -11 -4 -11 -10 0 -5 -8 -10 -18 -10 -38 0 -433
-213 -523 -282 -20 -15 -40 -28 -43 -28 -4 0 -12 -5 -19 -11 -10 -8 -72 -54
-185 -137 -51 -37 -89 -69 -144 -121 -61 -57 -76 -92 -64 -153 5 -30 12 -35
63 -51 68 -22 91 -16 150 36 302 266 705 500 1106 643 210 74 450 131 702 166
212 30 646 32 855 5 163 -21 252 -37 263 -47 5 -4 -8 -33 -28 -65 -49 -76
-127 -232 -165 -330 -34 -89 -84 -269 -99 -360 -68 -400 -3 -843 174 -1196
261 -517 707 -878 1263 -1019 189 -49 175 -38 236 -192 110 -283 322 -515 599
-654 195 -99 389 -140 619 -132 l138 5 -6 -41 c-13 -92 -79 -349 -124 -487
-136 -409 -340 -778 -623 -1123 -91 -111 -102 -142 -67 -204 21 -38 54 -62 84
-62 27 0 73 31 124 83 28 30 52 60 52 66 0 6 4 11 8 11 7 0 58 64 87 109 6 9
15 20 21 26 19 18 84 115 84 125 0 6 4 10 8 10 5 0 14 10 21 23 6 12 20 36 31
52 11 17 25 41 32 55 7 14 16 27 19 30 15 11 76 129 218 420 15 30 38 89 52
130 13 41 27 76 31 78 4 2 10 20 14 40 4 20 10 42 14 47 4 6 20 55 35 110 15
55 31 107 35 115 4 9 11 36 14 60 4 25 11 54 16 65 5 11 13 49 19 85 5 36 16
90 22 122 11 49 10 64 -5 116 -20 66 -64 119 -120 146 -28 13 -72 16 -244 16
-130 0 -213 4 -217 10 -3 6 -16 10 -29 10 -27 0 -175 46 -214 66 -15 8 -34 14
-44 14 -9 0 -18 3 -20 8 -1 4 -33 26 -71 49 -78 49 -80 50 -155 123 -68 66
-142 153 -142 169 0 6 -4 11 -9 11 -10 0 -104 187 -116 230 -11 42 -46 110
-56 110 -5 0 -9 6 -9 13 0 19 -58 70 -111 97 -69 36 -73 38 -125 45 -27 4 -78
15 -113 26 -35 10 -74 19 -87 19 -13 0 -24 4 -24 9 0 5 -15 13 -32 16 -18 4
-35 10 -38 14 -3 4 -38 20 -78 36 -40 16 -75 32 -78 36 -2 4 -29 20 -59 35
-30 16 -55 32 -55 36 0 4 -5 8 -11 8 -7 0 -31 16 -55 35 -23 19 -46 35 -50 35
-9 0 -12 3 -153 137 -94 89 -150 155 -248 288 -10 14 -35 57 -69 123 -16 28
-32 52 -36 52 -4 0 -8 7 -8 16 0 13 -35 98 -59 144 -5 9 -12 31 -16 50 -4 19
-11 40 -15 45 -11 16 -41 140 -57 245 -18 109 -28 446 -15 463 5 7 12 41 16
77 7 73 41 219 62 267 8 17 14 38 14 46 0 9 4 18 9 22 5 3 12 18 16 33 7 33
107 234 125 252 9 9 29 44 52 90 29 57 31 158 5 207 -23 43 -80 99 -109 108
-13 4 -27 11 -33 15 -5 4 -35 11 -65 15 -30 4 -84 14 -120 22 -36 7 -152 17
-258 20 -106 3 -195 10 -198 14 -7 12 -201 12 -208 1z"/>
<path d="M8440 9523 c-30 -8 -59 -18 -65 -23 -5 -4 -29 -11 -52 -15 -24 -4
-43 -10 -43 -15 0 -4 -20 -10 -45 -13 -25 -4 -59 -13 -75 -22 -16 -8 -40 -15
-53 -15 -13 0 -32 -7 -43 -15 -10 -8 -24 -15 -31 -15 -27 0 -136 -85 -172
-133 -57 -78 -84 -143 -97 -237 -2 -14 -8 -50 -13 -80 -14 -80 -13 -274 1
-307 6 -15 12 -30 13 -33 13 -51 38 -90 95 -149 33 -35 122 -101 135 -101 3 0
27 -9 53 -21 90 -39 74 -33 222 -82 19 -6 37 -14 40 -18 9 -13 114 -32 175
-32 67 0 175 21 175 33 0 4 12 11 27 14 29 8 94 50 133 87 63 60 122 182 136
284 3 28 11 55 16 62 5 6 13 33 18 60 13 69 36 165 48 204 41 127 10 316 -66
407 -9 12 -24 30 -33 42 -22 28 -119 100 -136 100 -7 0 -13 4 -13 8 0 4 -25
16 -55 25 -69 21 -217 21 -295 0z m221 -219 c66 -19 142 -92 158 -151 18 -65
13 -105 -49 -349 -66 -262 -82 -296 -157 -344 -61 -39 -116 -46 -188 -25 -111
32 -350 126 -381 150 -45 34 -84 117 -84 177 0 72 39 277 60 319 22 43 68 84
118 105 32 13 368 116 417 127 36 8 51 7 106 -9z"/>
<path d="M5649 8881 c-24 -24 -29 -38 -29 -77 0 -46 2 -50 83 -131 80 -80 85
-83 129 -83 36 0 51 6 72 27 60 60 48 105 -58 211 -77 77 -85 82 -125 82 -34
0 -49 -6 -72 -29z"/>
<path d="M3690 8853 c-18 -7 -116 -105 -150 -151 -14 -19 -42 -55 -62 -82 -21
-26 -38 -52 -38 -58 0 -6 -4 -12 -9 -14 -12 -4 -121 -165 -121 -178 0 -6 -4
-10 -10 -10 -5 0 -16 -15 -25 -32 -17 -37 -37 -71 -47 -78 -4 -3 -12 -17 -18
-30 -6 -14 -24 -50 -40 -80 -16 -30 -30 -61 -30 -67 0 -7 -4 -13 -8 -13 -10 0
-92 -173 -92 -195 0 -8 -4 -15 -10 -15 -5 0 -10 -6 -10 -13 0 -7 -9 -29 -20
-50 -11 -20 -20 -43 -20 -49 -1 -7 -9 -31 -20 -53 -11 -22 -19 -50 -20 -62 0
-13 -4 -23 -9 -23 -5 0 -12 -16 -16 -36 -3 -20 -10 -44 -15 -53 -13 -24 -48
-150 -56 -201 -4 -25 -11 -48 -16 -51 -5 -3 -11 -30 -14 -60 -3 -30 -9 -63
-14 -74 -10 -22 -37 -181 -50 -290 -5 -38 -9 -145 -9 -237 -1 -100 -5 -169
-11 -173 -12 -8 -13 -62 -1 -69 4 -3 11 -106 14 -228 3 -123 10 -239 16 -258
6 -19 16 -75 22 -125 6 -49 14 -94 19 -100 4 -5 11 -36 14 -67 4 -32 12 -58
17 -58 5 0 9 -12 9 -27 0 -29 50 -215 61 -223 3 -3 9 -23 12 -44 4 -22 10 -42
15 -45 4 -3 13 -22 19 -41 41 -124 60 -169 152 -360 33 -69 79 -156 101 -195
22 -38 42 -78 46 -87 3 -10 10 -18 14 -18 5 0 18 -20 30 -45 12 -25 27 -51 34
-58 20 -22 56 -76 56 -84 0 -5 8 -16 18 -25 9 -9 35 -41 56 -72 22 -31 43 -56
48 -56 4 0 8 -5 8 -11 0 -6 16 -30 36 -53 19 -22 54 -63 77 -90 55 -64 289
-298 358 -358 30 -25 73 -63 95 -82 23 -20 47 -36 53 -36 6 0 11 -4 11 -8 0
-5 25 -26 56 -48 31 -21 63 -47 72 -56 9 -10 20 -18 25 -18 7 0 65 -38 77 -50
5 -5 86 -58 135 -87 11 -7 32 -18 48 -25 15 -7 27 -15 27 -18 0 -4 28 -20 63
-36 34 -16 64 -32 67 -36 3 -3 18 -10 33 -13 15 -4 27 -11 27 -16 0 -5 4 -9
10 -9 5 0 49 -19 97 -41 156 -74 244 -109 272 -109 12 0 21 -4 21 -9 0 -5 17
-12 38 -16 20 -4 43 -12 50 -17 7 -6 29 -14 50 -19 72 -16 157 -40 174 -49 9
-5 39 -12 67 -16 28 -4 54 -10 56 -15 3 -4 31 -11 63 -14 31 -4 79 -13 106
-21 27 -8 99 -17 160 -20 61 -4 117 -12 125 -18 20 -15 642 -15 662 0 8 6 62
14 120 17 101 5 310 39 354 57 11 5 43 12 70 15 28 4 55 10 60 13 6 4 33 12
60 19 92 21 170 45 175 53 3 4 21 11 40 15 19 4 40 11 45 15 6 4 26 11 45 15
19 4 44 13 55 20 11 7 35 16 53 19 17 4 32 11 32 16 0 4 16 11 35 14 19 4 35
11 35 16 0 6 6 10 12 10 12 0 146 61 178 81 8 5 43 23 78 40 34 17 62 34 62
39 0 5 14 11 30 15 17 4 30 10 30 15 0 4 8 10 18 14 9 3 37 19 62 36 25 16 52
33 60 37 8 3 17 9 20 12 3 3 25 20 50 36 25 17 47 33 48 38 2 4 9 7 16 7 6 0
19 8 27 17 9 10 42 36 72 57 31 22 59 46 61 53 3 7 12 13 20 13 8 0 16 3 18 8
2 4 23 24 47 44 49 42 71 78 71 117 0 46 -21 76 -62 89 -75 24 -90 18 -205
-75 -514 -417 -1057 -659 -1705 -761 -162 -25 -193 -27 -498 -26 -303 0 -337
2 -497 26 -393 62 -724 166 -1063 337 -338 170 -600 360 -876 635 -299 299
-485 558 -664 921 -183 373 -287 724 -337 1135 -26 218 -24 601 6 825 84 640
338 1232 746 1740 53 66 101 130 107 142 27 56 -34 154 -95 152 -18 0 -39 -3
-47 -6z"/>
<path d="M9685 8813 c-16 -3 -34 -8 -40 -13 -5 -4 -25 -11 -42 -15 -18 -3 -33
-11 -33 -16 0 -5 -6 -9 -14 -9 -17 0 -116 -99 -116 -116 0 -8 -4 -14 -10 -14
-5 0 -12 -16 -16 -35 -3 -19 -10 -38 -15 -41 -13 -7 -11 -184 1 -184 6 0 10
-8 10 -18 0 -54 86 -154 175 -203 55 -30 67 -33 151 -33 54 -1 97 4 105 10 8
7 28 15 46 18 17 4 34 14 37 22 3 8 12 14 20 14 15 0 106 96 106 112 0 5 10
30 21 56 18 38 21 60 17 128 -2 46 -9 88 -15 96 -6 7 -14 27 -17 45 -4 17 -14
34 -22 37 -8 3 -14 12 -14 19 0 22 -75 84 -130 108 -14 6 -32 15 -40 19 -21
10 -128 19 -165 13z m116 -246 c19 -12 42 -40 53 -61 16 -32 17 -44 7 -75 -14
-50 -50 -81 -100 -88 -53 -7 -96 11 -121 52 -41 67 -17 150 54 181 44 19 68
17 107 -9z"/>
<path d="M6170 8144 c-51 -48 -83 -88 -88 -108 -19 -71 29 -136 100 -136 36 0
47 7 115 73 113 109 127 149 72 212 -27 30 -37 35 -75 35 -41 0 -49 -5 -124
-76z"/>
<path d="M4695 8100 c-211 -45 -363 -182 -435 -390 -33 -96 -32 -238 3 -338
35 -100 81 -174 149 -237 118 -110 256 -161 413 -153 308 17 536 257 536 564
0 181 -76 333 -224 448 -86 66 -199 107 -312 111 -49 3 -108 0 -130 -5z"/>
<path d="M9080 7914 c-14 -3 -39 -12 -57 -20 -17 -8 -36 -14 -42 -14 -6 0 -11
-4 -11 -10 0 -5 -5 -10 -12 -10 -17 0 -118 -53 -118 -62 0 -4 -6 -8 -13 -8
-15 0 -106 -93 -126 -130 -7 -13 -20 -54 -27 -91 -12 -57 -12 -77 1 -144 8
-43 19 -81 24 -84 5 -4 13 -20 17 -36 4 -17 10 -32 13 -35 4 -3 20 -39 36 -80
16 -41 32 -77 36 -80 3 -3 10 -16 14 -29 4 -14 13 -31 19 -38 46 -57 86 -92
109 -98 15 -4 27 -11 27 -15 0 -4 19 -15 43 -24 47 -17 202 -23 212 -7 3 5 19
12 35 16 17 4 30 10 30 15 0 4 11 10 24 14 12 3 39 23 58 43 70 75 118 130
118 136 0 4 15 22 33 41 57 62 78 90 105 146 22 47 26 68 25 145 0 66 -5 100
-19 130 -25 53 -54 96 -79 117 -73 64 -92 78 -107 84 -10 3 -18 10 -18 15 0 5
-11 14 -25 19 -14 5 -25 14 -25 19 0 5 -10 13 -22 17 -13 4 -25 10 -28 14 -24
32 -173 59 -250 44z m225 -304 c101 -77 125 -108 125 -163 0 -38 -16 -62 -142
-212 -89 -107 -127 -131 -188 -119 -49 10 -75 47 -145 211 -92 213 -87 234 77
317 127 65 145 63 273 -34z"/>
<path d="M6189 7287 c-88 -33 -164 -103 -203 -186 -32 -69 -30 -207 4 -276 58
-116 172 -189 295 -189 106 -1 167 24 242 99 53 53 64 71 83 134 18 57 21 86
16 129 -14 116 -89 222 -191 272 -60 29 -189 38 -246 17z"/>
<path d="M3941 6596 c-30 -17 -50 -52 -51 -89 0 -16 31 -90 70 -167 61 -119
75 -140 106 -155 70 -33 144 11 144 87 1 59 -122 303 -162 324 -34 17 -76 17
-107 0z"/>
<path d="M5438 6254 c-36 -19 -48 -43 -48 -94 0 -39 6 -48 76 -121 84 -86 123
-106 170 -89 42 16 63 39 70 76 9 49 -3 73 -75 148 -89 92 -135 112 -193 80z"/>
<path d="M7282 6200 c-149 -73 -172 -94 -172 -157 0 -56 66 -111 118 -98 41
10 264 124 289 147 64 59 13 178 -75 178 -11 0 -83 -31 -160 -70z"/>
<path d="M4894 5671 c-124 -42 -214 -121 -272 -241 -36 -73 -37 -78 -37 -185
0 -106 2 -113 37 -188 109 -230 371 -324 601 -214 273 129 341 477 137 700
-59 65 -109 98 -195 127 -74 25 -198 26 -271 1z"/>
<path d="M8289 5661 c-46 -46 -40 -79 41 -241 38 -76 78 -144 89 -150 11 -5
38 -10 61 -10 56 0 100 42 100 94 0 51 -124 298 -161 320 -44 26 -96 21 -130
-13z"/>
<path d="M7070 5444 c-244 -64 -420 -293 -420 -544 1 -156 54 -284 165 -396
251 -255 667 -217 865 79 215 321 47 765 -326 861 -76 20 -210 20 -284 0z"/>
<path d="M5669 4360 c-74 -37 -142 -76 -150 -86 -8 -10 -14 -38 -14 -66 0 -42
4 -53 28 -74 47 -40 89 -33 236 41 73 36 138 76 150 91 33 41 28 89 -13 130
-49 49 -76 45 -237 -36z"/>
<path d="M6843 3853 c-31 -6 -70 -48 -77 -84 -10 -54 -7 -138 8 -174 20 -48
57 -69 109 -62 69 9 87 41 87 157 0 108 -11 133 -66 156 -18 8 -35 13 -36 13
-2 -1 -13 -4 -25 -6z"/>
</g>
</svg>
